<!--Icons made by <a href="https://www.flaticon.com/authors/freepik" title="Freepik">Freepik</a> from <a href="https://www.flaticon.com/" title="Flaticon"> www.flaticon.com</a>-->
<svg id="Capa_1" enable-background="new 0 0 512 512" height="512" viewBox="0 0 512 512" width="512" xmlns="http://www.w3.org/2000/svg"><path d="m454.572 100.283c-2.012-3.234-2.012-7.331 0-10.566l22.893-36.793c3.343-5.371 2.998-12.355-1.121-17.421-2.915-3.585-7.416-5.503-12.037-5.503h-129.577c-8.284 0-15 6.716-15 15v100c0 8.284 6.716 15 15 15h129.577c4.621 0 9.122-1.918 12.037-5.504 4.118-5.065 4.464-12.05 1.121-17.421z" fill="#f57a21"/><path d="m10.018 512h256.755c8.154 0 12.88-9.234 8.111-15.848l-128.377-178.055c-3.991-5.535-12.232-5.535-16.223 0l-128.378 178.055c-4.769 6.614-.042 15.848 8.112 15.848z" fill="#354a67"/><path d="m274.885 496.152-128.378-178.055c-1.996-2.768-5.053-4.152-8.111-4.152v198.055h128.378c8.153 0 12.879-9.234 8.111-15.848z" fill="#233145"/><path d="m324.729 267c-8.284 0-15-6.716-15-15v-237c0-8.284 6.716-15 15-15s15 6.716 15 15v237c0 8.284-6.715 15-15 15z" fill="#fbcf82"/><path d="m324.73 0v267c8.284 0 15-6.716 15-15v-237c-.001-8.284-6.716-15-15-15z" fill="#fdb43a"/><path d="m510.168 496.256-109.206-155.622-76.233-20-76.233 20-109.205 155.622c-4.65 6.627.09 15.744 8.186 15.744h354.506c8.095 0 12.835-9.117 8.185-15.744z" fill="#466286"/><path d="m510.168 496.256-109.206-155.622-76.233-20v191.366h177.253c8.096 0 12.836-9.117 8.186-15.744z" fill="#354a67"/><path d="m331.542 342.053 27.145 25.289c3.84 3.578 9.793 3.578 13.633 0l28.653-26.694-68.057-96.984c-3.982-5.674-12.389-5.674-16.371 0l-68.057 96.984 28.648 26.692c3.84 3.578 9.794 3.578 13.634 0l27.14-25.288c3.838-3.577 9.791-3.577 13.632.001z" fill="#efeff9"/><path d="m332.915 243.665c-1.991-2.837-5.088-4.256-8.186-4.256v99.961c2.447.001 4.893.895 6.812 2.683l27.145 25.289c3.84 3.578 9.793 3.578 13.633 0l28.653-26.694z" fill="#d5d4f9"/></svg>